


<svg width="218" height="37" viewBox="0 0 218 37" fill="none" xmlns="http://www.w3.org/2000/svg">
<mask id="path-1-outside-1_1_6" maskUnits="userSpaceOnUse" x="0.880005" y="0.160004" width="217" height="36" fill="black">
<rect fill="white" x="0.880005" y="0.160004" width="217" height="36"/>
<path d="M22.136 11.096C23.064 11.096 24.024 12.008 25.016 13.832C26.008 15.656 26.84 17.752 27.512 20.12C28.184 22.456 28.52 24.2 28.52 25.352C28.52 27.112 28.136 28.696 27.368 30.104C26.632 31.48 25.576 32.568 24.2 33.368C22.824 34.136 21.256 34.52 19.496 34.52C17.064 34.52 14.952 33.864 13.16 32.552C11.4 31.24 9.99201 29.736 8.93601 28.04C7.88001 26.312 6.79201 24.248 5.67201 21.848L5 20.408L5.096 32.024C5.096 32.728 4.968 33.416 4.712 34.088C4.488 34.728 4.088 35.048 3.512 35.048C2.936 35.048 2.52 34.728 2.264 34.088C2.008 33.416 1.88 32.76 1.88 32.12C1.88 30.072 2.04 27.128 2.36 23.288C2.68001 19.448 2.84 16.584 2.84 14.696C2.84 14.248 2.808 13.784 2.744 13.304C2.68 12.824 2.632 12.488 2.6 12.296C2.44 11.432 2.36 10.664 2.36 9.992V9.8C2.45601 9.8 2.74401 9.736 3.22401 9.608C3.73601 9.448 4.04001 9.368 4.13601 9.368H4.616C5.832 14.84 7.624 19.896 9.99201 24.536C12.392 29.144 15.672 31.448 19.832 31.448C21.784 31.448 23.256 30.872 24.248 29.72C25.272 28.536 25.784 26.952 25.784 24.968C25.784 23.272 25.512 21.72 24.968 20.312C24.424 18.872 23.608 17.112 22.52 15.032L21.224 12.488C21.128 12.328 21.08 12.168 21.08 12.008C21.08 11.752 21.176 11.544 21.368 11.384C21.56 11.192 21.816 11.096 22.136 11.096ZM5.096 32.024V31.928V32.024Z"/>
<path d="M36.5266 35.048C35.7906 35.048 35.1986 33.976 34.7506 31.832C34.3026 29.656 34.0146 27.784 33.8866 26.216C33.7586 24.648 33.5826 22.168 33.3586 18.776C33.3266 18.232 33.3106 17.528 33.3106 16.664C33.3106 15.576 33.3906 14.824 33.5506 14.408C33.7426 13.992 34.0466 13.784 34.4626 13.784C34.8146 13.784 35.0866 13.864 35.2786 14.024C35.5026 14.152 35.6946 14.376 35.8546 14.696L35.8066 16.616C35.8066 18.664 35.9026 20.6 36.0946 22.424C36.3186 24.248 36.6546 26.696 37.1026 29.768C37.3586 31.112 37.5346 32.216 37.6306 33.08C37.6946 33.528 37.6146 33.976 37.3906 34.424C37.1666 34.84 36.8786 35.048 36.5266 35.048ZM35.3266 8.648C34.6226 8.648 34.0946 8.376 33.7426 7.832C33.4226 7.288 33.2626 6.616 33.2626 5.816C33.2626 5.464 33.2786 5.20801 33.3106 5.04801C33.2786 4.53601 33.5666 4.28 34.1746 4.28C34.6226 4.28 35.0706 4.392 35.5186 4.616C35.9986 4.808 36.1426 4.95201 35.9506 5.04801C36.2706 5.88 36.4306 6.536 36.4306 7.016C36.4306 7.432 36.3346 7.768 36.1426 8.024C35.9506 8.248 35.6786 8.45601 35.3266 8.648Z"/>
<path d="M45.5356 35.048C44.7356 35.048 44.3356 34.584 44.3356 33.656C44.3356 33.464 44.3996 33.064 44.5276 32.456C44.6876 31.848 44.7676 31.176 44.7676 30.44V28.088V24.632C44.6076 22.36 44.2076 19.592 43.5676 16.328C42.8636 12.744 42.3196 9.416 41.9356 6.34401C42.0316 5.8 42.2876 5.52801 42.7036 5.52801C43.2476 5.52801 43.9036 6.968 44.6716 9.848C45.4396 12.696 46.2236 17.416 47.0236 24.008C47.6636 22.408 48.5436 20.792 49.6636 19.16C50.7836 17.496 51.9676 16.12 53.2156 15.032C54.4636 13.944 55.5516 13.4 56.4796 13.4C56.8636 13.4 57.1036 13.512 57.1996 13.736C57.3276 13.96 57.3756 14.28 57.3436 14.696C55.4556 16.36 53.5516 18.296 51.6316 20.504C49.7116 22.712 48.7516 24.424 48.7516 25.64C48.7516 26.376 49.3596 27.224 50.5756 28.184C51.7916 29.112 53.2956 29.944 55.0876 30.68C56.8796 31.384 58.5596 31.784 60.1276 31.88C60.7356 31.976 61.0396 32.344 61.0396 32.984C61.0396 34.072 60.0156 34.616 57.9676 34.616C56.3356 34.616 54.5436 33.96 52.5916 32.648C50.6716 31.336 49.0076 29.96 47.5996 28.52C47.5036 29.064 47.4396 29.544 47.4076 29.96C47.3756 30.344 47.3436 30.68 47.3116 30.968C47.1836 32.376 47.0076 33.416 46.7836 34.088C46.5916 34.728 46.1756 35.048 45.5356 35.048Z"/>
<path d="M68.2625 34.904C68.1025 34.936 67.9265 34.328 67.7345 33.08C67.5745 31.832 67.3505 29.688 67.0625 26.648C66.6145 21.656 66.1025 17.08 65.5265 12.92C64.9825 8.76 64.2945 5.16 63.4625 2.12C63.3985 1.864 63.4945 1.64 63.7505 1.448C64.0065 1.256 64.3585 1.16 64.8065 1.16C65.0305 1.16 65.2065 1.176 65.3345 1.208C66.1345 3.384 66.6945 5.304 67.0145 6.968C67.3665 8.63201 67.6865 10.68 67.9745 13.112L68.2145 14.984C70.1345 13.832 71.8945 13.256 73.4945 13.256C76.4065 13.256 78.4705 14.584 79.6865 17.24C80.9345 19.864 81.5585 23.608 81.5585 28.472C81.5585 30.328 81.4465 31.896 81.2225 33.176C80.9985 34.424 80.7265 35.048 80.4065 35.048C79.9905 35.048 79.5265 34.744 79.0145 34.136V32.552L79.0625 27.32C79.0625 26.328 79.0305 25.096 78.9665 23.624C78.8705 21.128 78.3585 19.24 77.4305 17.96C76.5345 16.68 74.9825 16.04 72.7745 16.04C71.3025 16.04 69.9265 16.584 68.6465 17.672C68.6465 18.888 68.6945 20.136 68.7905 21.416C68.9185 22.696 69.0625 23.944 69.2225 25.16C69.4465 26.856 69.6065 28.36 69.7025 29.672C69.8305 30.952 69.8945 32.376 69.8945 33.944C69.7025 34.328 69.4785 34.584 69.2225 34.712C68.9985 34.84 68.6785 34.904 68.2625 34.904Z"/>
<path d="M88.9798 35.048C88.2438 35.048 87.6518 33.976 87.2038 31.832C86.7558 29.656 86.4678 27.784 86.3398 26.216C86.2118 24.648 86.0358 22.168 85.8118 18.776C85.7798 18.232 85.7638 17.528 85.7638 16.664C85.7638 15.576 85.8438 14.824 86.0038 14.408C86.1958 13.992 86.4998 13.784 86.9158 13.784C87.2678 13.784 87.5398 13.864 87.7318 14.024C87.9558 14.152 88.1478 14.376 88.3078 14.696L88.2598 16.616C88.2598 18.664 88.3558 20.6 88.5478 22.424C88.7718 24.248 89.1078 26.696 89.5558 29.768C89.8118 31.112 89.9878 32.216 90.0838 33.08C90.1478 33.528 90.0678 33.976 89.8438 34.424C89.6198 34.84 89.3318 35.048 88.9798 35.048ZM87.7798 8.648C87.0758 8.648 86.5478 8.376 86.1958 7.832C85.8758 7.288 85.7158 6.616 85.7158 5.816C85.7158 5.464 85.7318 5.20801 85.7638 5.04801C85.7318 4.53601 86.0198 4.28 86.6278 4.28C87.0758 4.28 87.5238 4.392 87.9718 4.616C88.4518 4.808 88.5958 4.95201 88.4038 5.04801C88.7238 5.88 88.8838 6.536 88.8838 7.016C88.8838 7.432 88.7878 7.768 88.5958 8.024C88.4038 8.248 88.1318 8.45601 87.7798 8.648Z"/>
<path d="M97.0288 34.664C96.3248 31.176 95.7808 27.048 95.3968 22.28C95.0448 17.48 94.8688 12.84 94.8688 8.36001C94.8688 6.12001 94.9168 4.13601 95.0128 2.408C95.0128 1.992 95.3328 1.784 95.9728 1.784C96.4848 1.784 96.8048 1.912 96.9328 2.168C97.0928 2.424 97.1728 2.824 97.1728 3.368C97.1728 8.552 97.2688 12.984 97.4608 16.664C97.6528 20.312 97.9088 24.248 98.2288 28.472C98.4208 31.192 98.5488 33.032 98.6128 33.992C98.6448 34.504 98.3728 34.76 97.7968 34.76C97.6048 34.76 97.3488 34.728 97.0288 34.664Z"/>
<path d="M134.083 35.048C127.971 35.048 123.235 34.712 119.875 34.04C119.011 18.008 118.227 8.312 117.523 4.952L116.083 5.288C115.315 5.448 114.579 5.624 113.875 5.816C113.171 5.976 112.419 6.216 111.619 6.536L111.571 4.90401C111.571 4.36 112.163 3.864 113.347 3.416C114.531 2.936 115.955 2.568 117.619 2.312C119.315 2.024 120.819 1.88 122.131 1.88C123.571 1.88 125.219 2.136 127.075 2.648C128.963 3.16 130.579 3.928 131.923 4.952C133.267 5.944 133.939 7.128 133.939 8.504C133.939 10.072 133.331 11.464 132.115 12.68C130.931 13.864 129.379 14.712 127.459 15.224C130.275 15.704 132.899 16.568 135.331 17.816C137.763 19.032 139.715 20.552 141.187 22.376C142.659 24.168 143.395 26.104 143.395 28.184C143.395 30.584 142.467 32.328 140.611 33.416C138.755 34.504 136.579 35.048 134.083 35.048ZM132.835 32.312C135.203 32.312 137.027 32.056 138.307 31.544C139.587 31 140.227 29.848 140.227 28.088C140.227 26.232 139.667 24.68 138.547 23.432C137.459 22.152 136.163 21.16 134.659 20.456C133.187 19.72 131.347 18.952 129.139 18.152C127.379 17.544 126.067 17.016 125.203 16.568C124.371 16.088 123.955 15.56 123.955 14.984C123.955 14.568 124.163 14.248 124.579 14.024C124.995 13.8 125.731 13.48 126.787 13.064C128.227 12.584 129.347 12.072 130.147 11.528C130.979 10.952 131.395 10.152 131.395 9.128C131.395 7.624 130.483 6.47201 128.659 5.67201C126.835 4.84001 124.787 4.42401 122.515 4.42401C121.875 4.42401 121.107 4.488 120.211 4.616C121.043 9.992 121.619 14.52 121.939 18.2C122.259 21.848 122.483 26.088 122.611 30.92C123.059 31.368 124.195 31.704 126.019 31.928C127.843 32.152 130.115 32.28 132.835 32.312Z"/>
<path d="M149.964 35.048C149.228 35.048 148.636 33.976 148.188 31.832C147.74 29.656 147.452 27.784 147.324 26.216C147.196 24.648 147.02 22.168 146.796 18.776C146.764 18.232 146.748 17.528 146.748 16.664C146.748 15.576 146.828 14.824 146.988 14.408C147.18 13.992 147.484 13.784 147.9 13.784C148.252 13.784 148.524 13.864 148.716 14.024C148.94 14.152 149.132 14.376 149.292 14.696L149.244 16.616C149.244 18.664 149.34 20.6 149.532 22.424C149.756 24.248 150.092 26.696 150.54 29.768C150.796 31.112 150.972 32.216 151.068 33.08C151.132 33.528 151.052 33.976 150.828 34.424C150.604 34.84 150.316 35.048 149.964 35.048ZM148.764 8.648C148.06 8.648 147.532 8.376 147.18 7.832C146.86 7.288 146.7 6.616 146.7 5.816C146.7 5.464 146.716 5.20801 146.748 5.04801C146.716 4.53601 147.004 4.28 147.612 4.28C148.06 4.28 148.508 4.392 148.956 4.616C149.436 4.808 149.58 4.95201 149.388 5.04801C149.708 5.88 149.868 6.536 149.868 7.016C149.868 7.432 149.772 7.768 149.58 8.024C149.388 8.248 149.116 8.45601 148.764 8.648Z"/>
<path d="M155.613 29.336C156.061 28.984 156.493 28.808 156.909 28.808C157.293 28.808 157.661 28.92 158.013 29.144C158.397 29.368 158.781 29.656 159.165 30.008C159.549 30.328 159.853 30.568 160.077 30.728C160.813 31.304 161.821 31.752 163.101 32.072C164.381 32.392 165.741 32.552 167.181 32.552C168.813 32.552 170.269 32.248 171.549 31.64C172.861 31 173.517 30.152 173.517 29.096C173.517 28.136 173.165 27.384 172.461 26.84C171.757 26.264 170.909 25.848 169.917 25.592C168.925 25.336 167.613 25.096 165.981 24.872C163.773 24.616 162.013 24.296 160.701 23.912C159.421 23.528 158.397 22.904 157.629 22.04C156.861 21.144 156.477 19.896 156.477 18.296C156.477 16.568 157.293 15.288 158.925 14.456C160.557 13.592 162.429 13.16 164.541 13.16C166.461 13.16 168.093 13.576 169.437 14.408C170.813 15.208 171.517 16.36 171.549 17.864C171.613 18.728 171.485 19.416 171.165 19.928C170.845 20.408 170.461 20.648 170.013 20.648C169.757 20.648 169.533 20.552 169.341 20.36C169.181 20.168 169.101 19.912 169.101 19.592C169.101 19.08 169.277 18.52 169.629 17.912C169.469 17.144 168.941 16.568 168.045 16.184C167.181 15.8 166.141 15.608 164.925 15.608C163.133 15.608 161.709 15.944 160.653 16.616C159.597 17.256 159.069 18.024 159.069 18.92C159.069 19.88 159.453 20.616 160.221 21.128C160.989 21.64 161.917 22.008 163.005 22.232C164.125 22.424 165.709 22.616 167.757 22.808C169.453 23.032 170.829 23.304 171.885 23.624C172.973 23.944 173.885 24.568 174.621 25.496C175.357 26.392 175.725 27.688 175.725 29.384C175.725 31.144 174.909 32.536 173.277 33.56C171.645 34.552 169.693 35.048 167.421 35.048C164.509 35.048 161.901 34.552 159.597 33.56C157.325 32.568 155.997 31.16 155.613 29.336Z"/>
<path d="M185.075 34.904C184.915 34.936 184.739 34.328 184.547 33.08C184.387 31.832 184.163 29.688 183.875 26.648C183.427 21.656 182.915 17.08 182.339 12.92C181.795 8.76 181.107 5.16 180.275 2.12C180.211 1.864 180.307 1.64 180.563 1.448C180.819 1.256 181.171 1.16 181.619 1.16C181.843 1.16 182.019 1.176 182.147 1.208C182.947 3.384 183.507 5.304 183.827 6.968C184.179 8.63201 184.499 10.68 184.787 13.112L185.027 14.984C186.947 13.832 188.707 13.256 190.307 13.256C193.219 13.256 195.283 14.584 196.499 17.24C197.747 19.864 198.371 23.608 198.371 28.472C198.371 30.328 198.259 31.896 198.035 33.176C197.811 34.424 197.539 35.048 197.219 35.048C196.803 35.048 196.339 34.744 195.827 34.136V32.552L195.875 27.32C195.875 26.328 195.843 25.096 195.779 23.624C195.683 21.128 195.171 19.24 194.243 17.96C193.347 16.68 191.795 16.04 189.587 16.04C188.115 16.04 186.739 16.584 185.459 17.672C185.459 18.888 185.507 20.136 185.603 21.416C185.731 22.696 185.875 23.944 186.035 25.16C186.259 26.856 186.419 28.36 186.515 29.672C186.643 30.952 186.707 32.376 186.707 33.944C186.515 34.328 186.291 34.584 186.035 34.712C185.811 34.84 185.491 34.904 185.075 34.904Z"/>
<path d="M210.304 35C209.984 35.064 209.776 35.096 209.68 35.096C208.688 35.096 208 34.36 207.616 32.888C207.264 31.416 207.088 29.352 207.088 26.696C207.088 25.608 207.12 23.912 207.184 21.608C207.248 20.2 207.28 19.144 207.28 18.44C203.344 18.44 201.376 17.992 201.376 17.096C201.376 16.808 201.408 16.584 201.472 16.424C201.568 16.264 201.76 16.184 202.048 16.184L207.28 15.848C207.248 14.28 207.168 12.568 207.04 10.712C206.912 9.048 206.832 7.512 206.8 6.104C206.8 5.752 206.944 5.512 207.232 5.384C207.52 5.224 207.824 5.144 208.144 5.144C208.528 5.144 208.848 5.352 209.104 5.768C209.36 6.152 209.488 6.55201 209.488 6.968L209.824 15.752L213.808 15.944C214.416 15.88 214.928 15.992 215.344 16.28C215.792 16.568 216.032 17.048 216.064 17.72C215.392 18.008 214.656 18.184 213.856 18.248C213.056 18.312 211.712 18.344 209.824 18.344C209.824 21.32 209.968 26.216 210.256 33.032C210.256 33.736 210.256 34.232 210.256 34.52C210.288 34.776 210.304 34.936 210.304 35Z"/>
</mask>
<path d="M22.136 11.096C23.064 11.096 24.024 12.008 25.016 13.832C26.008 15.656 26.84 17.752 27.512 20.12C28.184 22.456 28.52 24.2 28.52 25.352C28.52 27.112 28.136 28.696 27.368 30.104C26.632 31.48 25.576 32.568 24.2 33.368C22.824 34.136 21.256 34.52 19.496 34.52C17.064 34.52 14.952 33.864 13.16 32.552C11.4 31.24 9.99201 29.736 8.93601 28.04C7.88001 26.312 6.79201 24.248 5.67201 21.848L5 20.408L5.096 32.024C5.096 32.728 4.968 33.416 4.712 34.088C4.488 34.728 4.088 35.048 3.512 35.048C2.936 35.048 2.52 34.728 2.264 34.088C2.008 33.416 1.88 32.76 1.88 32.12C1.88 30.072 2.04 27.128 2.36 23.288C2.68001 19.448 2.84 16.584 2.84 14.696C2.84 14.248 2.808 13.784 2.744 13.304C2.68 12.824 2.632 12.488 2.6 12.296C2.44 11.432 2.36 10.664 2.36 9.992V9.8C2.45601 9.8 2.74401 9.736 3.22401 9.608C3.73601 9.448 4.04001 9.368 4.13601 9.368H4.616C5.832 14.84 7.624 19.896 9.99201 24.536C12.392 29.144 15.672 31.448 19.832 31.448C21.784 31.448 23.256 30.872 24.248 29.72C25.272 28.536 25.784 26.952 25.784 24.968C25.784 23.272 25.512 21.72 24.968 20.312C24.424 18.872 23.608 17.112 22.52 15.032L21.224 12.488C21.128 12.328 21.08 12.168 21.08 12.008C21.08 11.752 21.176 11.544 21.368 11.384C21.56 11.192 21.816 11.096 22.136 11.096ZM5.096 32.024V31.928V32.024Z" fill="#D2BE55" fill-opacity="0.99"/>
<path d="M36.5266 35.048C35.7906 35.048 35.1986 33.976 34.7506 31.832C34.3026 29.656 34.0146 27.784 33.8866 26.216C33.7586 24.648 33.5826 22.168 33.3586 18.776C33.3266 18.232 33.3106 17.528 33.3106 16.664C33.3106 15.576 33.3906 14.824 33.5506 14.408C33.7426 13.992 34.0466 13.784 34.4626 13.784C34.8146 13.784 35.0866 13.864 35.2786 14.024C35.5026 14.152 35.6946 14.376 35.8546 14.696L35.8066 16.616C35.8066 18.664 35.9026 20.6 36.0946 22.424C36.3186 24.248 36.6546 26.696 37.1026 29.768C37.3586 31.112 37.5346 32.216 37.6306 33.08C37.6946 33.528 37.6146 33.976 37.3906 34.424C37.1666 34.84 36.8786 35.048 36.5266 35.048ZM35.3266 8.648C34.6226 8.648 34.0946 8.376 33.7426 7.832C33.4226 7.288 33.2626 6.616 33.2626 5.816C33.2626 5.464 33.2786 5.20801 33.3106 5.04801C33.2786 4.53601 33.5666 4.28 34.1746 4.28C34.6226 4.28 35.0706 4.392 35.5186 4.616C35.9986 4.808 36.1426 4.95201 35.9506 5.04801C36.2706 5.88 36.4306 6.536 36.4306 7.016C36.4306 7.432 36.3346 7.768 36.1426 8.024C35.9506 8.248 35.6786 8.45601 35.3266 8.648Z" fill="#D2BE55" fill-opacity="0.99"/>
<path d="M45.5356 35.048C44.7356 35.048 44.3356 34.584 44.3356 33.656C44.3356 33.464 44.3996 33.064 44.5276 32.456C44.6876 31.848 44.7676 31.176 44.7676 30.44V28.088V24.632C44.6076 22.36 44.2076 19.592 43.5676 16.328C42.8636 12.744 42.3196 9.416 41.9356 6.34401C42.0316 5.8 42.2876 5.52801 42.7036 5.52801C43.2476 5.52801 43.9036 6.968 44.6716 9.848C45.4396 12.696 46.2236 17.416 47.0236 24.008C47.6636 22.408 48.5436 20.792 49.6636 19.16C50.7836 17.496 51.9676 16.12 53.2156 15.032C54.4636 13.944 55.5516 13.4 56.4796 13.4C56.8636 13.4 57.1036 13.512 57.1996 13.736C57.3276 13.96 57.3756 14.28 57.3436 14.696C55.4556 16.36 53.5516 18.296 51.6316 20.504C49.7116 22.712 48.7516 24.424 48.7516 25.64C48.7516 26.376 49.3596 27.224 50.5756 28.184C51.7916 29.112 53.2956 29.944 55.0876 30.68C56.8796 31.384 58.5596 31.784 60.1276 31.88C60.7356 31.976 61.0396 32.344 61.0396 32.984C61.0396 34.072 60.0156 34.616 57.9676 34.616C56.3356 34.616 54.5436 33.96 52.5916 32.648C50.6716 31.336 49.0076 29.96 47.5996 28.52C47.5036 29.064 47.4396 29.544 47.4076 29.96C47.3756 30.344 47.3436 30.68 47.3116 30.968C47.1836 32.376 47.0076 33.416 46.7836 34.088C46.5916 34.728 46.1756 35.048 45.5356 35.048Z" fill="#D2BE55" fill-opacity="0.99"/>
<path d="M68.2625 34.904C68.1025 34.936 67.9265 34.328 67.7345 33.08C67.5745 31.832 67.3505 29.688 67.0625 26.648C66.6145 21.656 66.1025 17.08 65.5265 12.92C64.9825 8.76 64.2945 5.16 63.4625 2.12C63.3985 1.864 63.4945 1.64 63.7505 1.448C64.0065 1.256 64.3585 1.16 64.8065 1.16C65.0305 1.16 65.2065 1.176 65.3345 1.208C66.1345 3.384 66.6945 5.304 67.0145 6.968C67.3665 8.63201 67.6865 10.68 67.9745 13.112L68.2145 14.984C70.1345 13.832 71.8945 13.256 73.4945 13.256C76.4065 13.256 78.4705 14.584 79.6865 17.24C80.9345 19.864 81.5585 23.608 81.5585 28.472C81.5585 30.328 81.4465 31.896 81.2225 33.176C80.9985 34.424 80.7265 35.048 80.4065 35.048C79.9905 35.048 79.5265 34.744 79.0145 34.136V32.552L79.0625 27.32C79.0625 26.328 79.0305 25.096 78.9665 23.624C78.8705 21.128 78.3585 19.24 77.4305 17.96C76.5345 16.68 74.9825 16.04 72.7745 16.04C71.3025 16.04 69.9265 16.584 68.6465 17.672C68.6465 18.888 68.6945 20.136 68.7905 21.416C68.9185 22.696 69.0625 23.944 69.2225 25.16C69.4465 26.856 69.6065 28.36 69.7025 29.672C69.8305 30.952 69.8945 32.376 69.8945 33.944C69.7025 34.328 69.4785 34.584 69.2225 34.712C68.9985 34.84 68.6785 34.904 68.2625 34.904Z" fill="#D2BE55" fill-opacity="0.99"/>
<path d="M88.9798 35.048C88.2438 35.048 87.6518 33.976 87.2038 31.832C86.7558 29.656 86.4678 27.784 86.3398 26.216C86.2118 24.648 86.0358 22.168 85.8118 18.776C85.7798 18.232 85.7638 17.528 85.7638 16.664C85.7638 15.576 85.8438 14.824 86.0038 14.408C86.1958 13.992 86.4998 13.784 86.9158 13.784C87.2678 13.784 87.5398 13.864 87.7318 14.024C87.9558 14.152 88.1478 14.376 88.3078 14.696L88.2598 16.616C88.2598 18.664 88.3558 20.6 88.5478 22.424C88.7718 24.248 89.1078 26.696 89.5558 29.768C89.8118 31.112 89.9878 32.216 90.0838 33.08C90.1478 33.528 90.0678 33.976 89.8438 34.424C89.6198 34.84 89.3318 35.048 88.9798 35.048ZM87.7798 8.648C87.0758 8.648 86.5478 8.376 86.1958 7.832C85.8758 7.288 85.7158 6.616 85.7158 5.816C85.7158 5.464 85.7318 5.20801 85.7638 5.04801C85.7318 4.53601 86.0198 4.28 86.6278 4.28C87.0758 4.28 87.5238 4.392 87.9718 4.616C88.4518 4.808 88.5958 4.95201 88.4038 5.04801C88.7238 5.88 88.8838 6.536 88.8838 7.016C88.8838 7.432 88.7878 7.768 88.5958 8.024C88.4038 8.248 88.1318 8.45601 87.7798 8.648Z" fill="#D2BE55" fill-opacity="0.99"/>
<path d="M97.0288 34.664C96.3248 31.176 95.7808 27.048 95.3968 22.28C95.0448 17.48 94.8688 12.84 94.8688 8.36001C94.8688 6.12001 94.9168 4.13601 95.0128 2.408C95.0128 1.992 95.3328 1.784 95.9728 1.784C96.4848 1.784 96.8048 1.912 96.9328 2.168C97.0928 2.424 97.1728 2.824 97.1728 3.368C97.1728 8.552 97.2688 12.984 97.4608 16.664C97.6528 20.312 97.9088 24.248 98.2288 28.472C98.4208 31.192 98.5488 33.032 98.6128 33.992C98.6448 34.504 98.3728 34.76 97.7968 34.76C97.6048 34.76 97.3488 34.728 97.0288 34.664Z" fill="#D2BE55" fill-opacity="0.99"/>
<path d="M134.083 35.048C127.971 35.048 123.235 34.712 119.875 34.04C119.011 18.008 118.227 8.312 117.523 4.952L116.083 5.288C115.315 5.448 114.579 5.624 113.875 5.816C113.171 5.976 112.419 6.216 111.619 6.536L111.571 4.90401C111.571 4.36 112.163 3.864 113.347 3.416C114.531 2.936 115.955 2.568 117.619 2.312C119.315 2.024 120.819 1.88 122.131 1.88C123.571 1.88 125.219 2.136 127.075 2.648C128.963 3.16 130.579 3.928 131.923 4.952C133.267 5.944 133.939 7.128 133.939 8.504C133.939 10.072 133.331 11.464 132.115 12.68C130.931 13.864 129.379 14.712 127.459 15.224C130.275 15.704 132.899 16.568 135.331 17.816C137.763 19.032 139.715 20.552 141.187 22.376C142.659 24.168 143.395 26.104 143.395 28.184C143.395 30.584 142.467 32.328 140.611 33.416C138.755 34.504 136.579 35.048 134.083 35.048ZM132.835 32.312C135.203 32.312 137.027 32.056 138.307 31.544C139.587 31 140.227 29.848 140.227 28.088C140.227 26.232 139.667 24.68 138.547 23.432C137.459 22.152 136.163 21.16 134.659 20.456C133.187 19.72 131.347 18.952 129.139 18.152C127.379 17.544 126.067 17.016 125.203 16.568C124.371 16.088 123.955 15.56 123.955 14.984C123.955 14.568 124.163 14.248 124.579 14.024C124.995 13.8 125.731 13.48 126.787 13.064C128.227 12.584 129.347 12.072 130.147 11.528C130.979 10.952 131.395 10.152 131.395 9.128C131.395 7.624 130.483 6.47201 128.659 5.67201C126.835 4.84001 124.787 4.42401 122.515 4.42401C121.875 4.42401 121.107 4.488 120.211 4.616C121.043 9.992 121.619 14.52 121.939 18.2C122.259 21.848 122.483 26.088 122.611 30.92C123.059 31.368 124.195 31.704 126.019 31.928C127.843 32.152 130.115 32.28 132.835 32.312Z" fill="#D2BE55" fill-opacity="0.99"/>
<path d="M149.964 35.048C149.228 35.048 148.636 33.976 148.188 31.832C147.74 29.656 147.452 27.784 147.324 26.216C147.196 24.648 147.02 22.168 146.796 18.776C146.764 18.232 146.748 17.528 146.748 16.664C146.748 15.576 146.828 14.824 146.988 14.408C147.18 13.992 147.484 13.784 147.9 13.784C148.252 13.784 148.524 13.864 148.716 14.024C148.94 14.152 149.132 14.376 149.292 14.696L149.244 16.616C149.244 18.664 149.34 20.6 149.532 22.424C149.756 24.248 150.092 26.696 150.54 29.768C150.796 31.112 150.972 32.216 151.068 33.08C151.132 33.528 151.052 33.976 150.828 34.424C150.604 34.84 150.316 35.048 149.964 35.048ZM148.764 8.648C148.06 8.648 147.532 8.376 147.18 7.832C146.86 7.288 146.7 6.616 146.7 5.816C146.7 5.464 146.716 5.20801 146.748 5.04801C146.716 4.53601 147.004 4.28 147.612 4.28C148.06 4.28 148.508 4.392 148.956 4.616C149.436 4.808 149.58 4.95201 149.388 5.04801C149.708 5.88 149.868 6.536 149.868 7.016C149.868 7.432 149.772 7.768 149.58 8.024C149.388 8.248 149.116 8.45601 148.764 8.648Z" fill="#D2BE55" fill-opacity="0.99"/>
<path d="M155.613 29.336C156.061 28.984 156.493 28.808 156.909 28.808C157.293 28.808 157.661 28.92 158.013 29.144C158.397 29.368 158.781 29.656 159.165 30.008C159.549 30.328 159.853 30.568 160.077 30.728C160.813 31.304 161.821 31.752 163.101 32.072C164.381 32.392 165.741 32.552 167.181 32.552C168.813 32.552 170.269 32.248 171.549 31.64C172.861 31 173.517 30.152 173.517 29.096C173.517 28.136 173.165 27.384 172.461 26.84C171.757 26.264 170.909 25.848 169.917 25.592C168.925 25.336 167.613 25.096 165.981 24.872C163.773 24.616 162.013 24.296 160.701 23.912C159.421 23.528 158.397 22.904 157.629 22.04C156.861 21.144 156.477 19.896 156.477 18.296C156.477 16.568 157.293 15.288 158.925 14.456C160.557 13.592 162.429 13.16 164.541 13.16C166.461 13.16 168.093 13.576 169.437 14.408C170.813 15.208 171.517 16.36 171.549 17.864C171.613 18.728 171.485 19.416 171.165 19.928C170.845 20.408 170.461 20.648 170.013 20.648C169.757 20.648 169.533 20.552 169.341 20.36C169.181 20.168 169.101 19.912 169.101 19.592C169.101 19.08 169.277 18.52 169.629 17.912C169.469 17.144 168.941 16.568 168.045 16.184C167.181 15.8 166.141 15.608 164.925 15.608C163.133 15.608 161.709 15.944 160.653 16.616C159.597 17.256 159.069 18.024 159.069 18.92C159.069 19.88 159.453 20.616 160.221 21.128C160.989 21.64 161.917 22.008 163.005 22.232C164.125 22.424 165.709 22.616 167.757 22.808C169.453 23.032 170.829 23.304 171.885 23.624C172.973 23.944 173.885 24.568 174.621 25.496C175.357 26.392 175.725 27.688 175.725 29.384C175.725 31.144 174.909 32.536 173.277 33.56C171.645 34.552 169.693 35.048 167.421 35.048C164.509 35.048 161.901 34.552 159.597 33.56C157.325 32.568 155.997 31.16 155.613 29.336Z" fill="#D2BE55" fill-opacity="0.99"/>
<path d="M185.075 34.904C184.915 34.936 184.739 34.328 184.547 33.08C184.387 31.832 184.163 29.688 183.875 26.648C183.427 21.656 182.915 17.08 182.339 12.92C181.795 8.76 181.107 5.16 180.275 2.12C180.211 1.864 180.307 1.64 180.563 1.448C180.819 1.256 181.171 1.16 181.619 1.16C181.843 1.16 182.019 1.176 182.147 1.208C182.947 3.384 183.507 5.304 183.827 6.968C184.179 8.63201 184.499 10.68 184.787 13.112L185.027 14.984C186.947 13.832 188.707 13.256 190.307 13.256C193.219 13.256 195.283 14.584 196.499 17.24C197.747 19.864 198.371 23.608 198.371 28.472C198.371 30.328 198.259 31.896 198.035 33.176C197.811 34.424 197.539 35.048 197.219 35.048C196.803 35.048 196.339 34.744 195.827 34.136V32.552L195.875 27.32C195.875 26.328 195.843 25.096 195.779 23.624C195.683 21.128 195.171 19.24 194.243 17.96C193.347 16.68 191.795 16.04 189.587 16.04C188.115 16.04 186.739 16.584 185.459 17.672C185.459 18.888 185.507 20.136 185.603 21.416C185.731 22.696 185.875 23.944 186.035 25.16C186.259 26.856 186.419 28.36 186.515 29.672C186.643 30.952 186.707 32.376 186.707 33.944C186.515 34.328 186.291 34.584 186.035 34.712C185.811 34.84 185.491 34.904 185.075 34.904Z" fill="#D2BE55" fill-opacity="0.99"/>
<path d="M210.304 35C209.984 35.064 209.776 35.096 209.68 35.096C208.688 35.096 208 34.36 207.616 32.888C207.264 31.416 207.088 29.352 207.088 26.696C207.088 25.608 207.12 23.912 207.184 21.608C207.248 20.2 207.28 19.144 207.28 18.44C203.344 18.44 201.376 17.992 201.376 17.096C201.376 16.808 201.408 16.584 201.472 16.424C201.568 16.264 201.76 16.184 202.048 16.184L207.28 15.848C207.248 14.28 207.168 12.568 207.04 10.712C206.912 9.048 206.832 7.512 206.8 6.104C206.8 5.752 206.944 5.512 207.232 5.384C207.52 5.224 207.824 5.144 208.144 5.144C208.528 5.144 208.848 5.352 209.104 5.768C209.36 6.152 209.488 6.55201 209.488 6.968L209.824 15.752L213.808 15.944C214.416 15.88 214.928 15.992 215.344 16.28C215.792 16.568 216.032 17.048 216.064 17.72C215.392 18.008 214.656 18.184 213.856 18.248C213.056 18.312 211.712 18.344 209.824 18.344C209.824 21.32 209.968 26.216 210.256 33.032C210.256 33.736 210.256 34.232 210.256 34.52C210.288 34.776 210.304 34.936 210.304 35Z" fill="#D2BE55" fill-opacity="0.99"/>
<path d="M22.136 11.096C23.064 11.096 24.024 12.008 25.016 13.832C26.008 15.656 26.84 17.752 27.512 20.12C28.184 22.456 28.52 24.2 28.52 25.352C28.52 27.112 28.136 28.696 27.368 30.104C26.632 31.48 25.576 32.568 24.2 33.368C22.824 34.136 21.256 34.52 19.496 34.52C17.064 34.52 14.952 33.864 13.16 32.552C11.4 31.24 9.99201 29.736 8.93601 28.04C7.88001 26.312 6.79201 24.248 5.67201 21.848L5 20.408L5.096 32.024C5.096 32.728 4.968 33.416 4.712 34.088C4.488 34.728 4.088 35.048 3.512 35.048C2.936 35.048 2.52 34.728 2.264 34.088C2.008 33.416 1.88 32.76 1.88 32.12C1.88 30.072 2.04 27.128 2.36 23.288C2.68001 19.448 2.84 16.584 2.84 14.696C2.84 14.248 2.808 13.784 2.744 13.304C2.68 12.824 2.632 12.488 2.6 12.296C2.44 11.432 2.36 10.664 2.36 9.992V9.8C2.45601 9.8 2.74401 9.736 3.22401 9.608C3.73601 9.448 4.04001 9.368 4.13601 9.368H4.616C5.832 14.84 7.624 19.896 9.99201 24.536C12.392 29.144 15.672 31.448 19.832 31.448C21.784 31.448 23.256 30.872 24.248 29.72C25.272 28.536 25.784 26.952 25.784 24.968C25.784 23.272 25.512 21.72 24.968 20.312C24.424 18.872 23.608 17.112 22.52 15.032L21.224 12.488C21.128 12.328 21.08 12.168 21.08 12.008C21.08 11.752 21.176 11.544 21.368 11.384C21.56 11.192 21.816 11.096 22.136 11.096ZM5.096 32.024V31.928V32.024Z" stroke="white" stroke-width="2" mask="url(#path-1-outside-1_1_6)"/>
<path d="M36.5266 35.048C35.7906 35.048 35.1986 33.976 34.7506 31.832C34.3026 29.656 34.0146 27.784 33.8866 26.216C33.7586 24.648 33.5826 22.168 33.3586 18.776C33.3266 18.232 33.3106 17.528 33.3106 16.664C33.3106 15.576 33.3906 14.824 33.5506 14.408C33.7426 13.992 34.0466 13.784 34.4626 13.784C34.8146 13.784 35.0866 13.864 35.2786 14.024C35.5026 14.152 35.6946 14.376 35.8546 14.696L35.8066 16.616C35.8066 18.664 35.9026 20.6 36.0946 22.424C36.3186 24.248 36.6546 26.696 37.1026 29.768C37.3586 31.112 37.5346 32.216 37.6306 33.08C37.6946 33.528 37.6146 33.976 37.3906 34.424C37.1666 34.84 36.8786 35.048 36.5266 35.048ZM35.3266 8.648C34.6226 8.648 34.0946 8.376 33.7426 7.832C33.4226 7.288 33.2626 6.616 33.2626 5.816C33.2626 5.464 33.2786 5.20801 33.3106 5.04801C33.2786 4.53601 33.5666 4.28 34.1746 4.28C34.6226 4.28 35.0706 4.392 35.5186 4.616C35.9986 4.808 36.1426 4.95201 35.9506 5.04801C36.2706 5.88 36.4306 6.536 36.4306 7.016C36.4306 7.432 36.3346 7.768 36.1426 8.024C35.9506 8.248 35.6786 8.45601 35.3266 8.648Z" stroke="white" stroke-width="2" mask="url(#path-1-outside-1_1_6)"/>
<path d="M45.5356 35.048C44.7356 35.048 44.3356 34.584 44.3356 33.656C44.3356 33.464 44.3996 33.064 44.5276 32.456C44.6876 31.848 44.7676 31.176 44.7676 30.44V28.088V24.632C44.6076 22.36 44.2076 19.592 43.5676 16.328C42.8636 12.744 42.3196 9.416 41.9356 6.34401C42.0316 5.8 42.2876 5.52801 42.7036 5.52801C43.2476 5.52801 43.9036 6.968 44.6716 9.848C45.4396 12.696 46.2236 17.416 47.0236 24.008C47.6636 22.408 48.5436 20.792 49.6636 19.16C50.7836 17.496 51.9676 16.12 53.2156 15.032C54.4636 13.944 55.5516 13.4 56.4796 13.4C56.8636 13.4 57.1036 13.512 57.1996 13.736C57.3276 13.96 57.3756 14.28 57.3436 14.696C55.4556 16.36 53.5516 18.296 51.6316 20.504C49.7116 22.712 48.7516 24.424 48.7516 25.64C48.7516 26.376 49.3596 27.224 50.5756 28.184C51.7916 29.112 53.2956 29.944 55.0876 30.68C56.8796 31.384 58.5596 31.784 60.1276 31.88C60.7356 31.976 61.0396 32.344 61.0396 32.984C61.0396 34.072 60.0156 34.616 57.9676 34.616C56.3356 34.616 54.5436 33.96 52.5916 32.648C50.6716 31.336 49.0076 29.96 47.5996 28.52C47.5036 29.064 47.4396 29.544 47.4076 29.96C47.3756 30.344 47.3436 30.68 47.3116 30.968C47.1836 32.376 47.0076 33.416 46.7836 34.088C46.5916 34.728 46.1756 35.048 45.5356 35.048Z" stroke="white" stroke-width="2" mask="url(#path-1-outside-1_1_6)"/>
<path d="M68.2625 34.904C68.1025 34.936 67.9265 34.328 67.7345 33.08C67.5745 31.832 67.3505 29.688 67.0625 26.648C66.6145 21.656 66.1025 17.08 65.5265 12.92C64.9825 8.76 64.2945 5.16 63.4625 2.12C63.3985 1.864 63.4945 1.64 63.7505 1.448C64.0065 1.256 64.3585 1.16 64.8065 1.16C65.0305 1.16 65.2065 1.176 65.3345 1.208C66.1345 3.384 66.6945 5.304 67.0145 6.968C67.3665 8.63201 67.6865 10.68 67.9745 13.112L68.2145 14.984C70.1345 13.832 71.8945 13.256 73.4945 13.256C76.4065 13.256 78.4705 14.584 79.6865 17.24C80.9345 19.864 81.5585 23.608 81.5585 28.472C81.5585 30.328 81.4465 31.896 81.2225 33.176C80.9985 34.424 80.7265 35.048 80.4065 35.048C79.9905 35.048 79.5265 34.744 79.0145 34.136V32.552L79.0625 27.32C79.0625 26.328 79.0305 25.096 78.9665 23.624C78.8705 21.128 78.3585 19.24 77.4305 17.96C76.5345 16.68 74.9825 16.04 72.7745 16.04C71.3025 16.04 69.9265 16.584 68.6465 17.672C68.6465 18.888 68.6945 20.136 68.7905 21.416C68.9185 22.696 69.0625 23.944 69.2225 25.16C69.4465 26.856 69.6065 28.36 69.7025 29.672C69.8305 30.952 69.8945 32.376 69.8945 33.944C69.7025 34.328 69.4785 34.584 69.2225 34.712C68.9985 34.84 68.6785 34.904 68.2625 34.904Z" stroke="white" stroke-width="2" mask="url(#path-1-outside-1_1_6)"/>
<path d="M88.9798 35.048C88.2438 35.048 87.6518 33.976 87.2038 31.832C86.7558 29.656 86.4678 27.784 86.3398 26.216C86.2118 24.648 86.0358 22.168 85.8118 18.776C85.7798 18.232 85.7638 17.528 85.7638 16.664C85.7638 15.576 85.8438 14.824 86.0038 14.408C86.1958 13.992 86.4998 13.784 86.9158 13.784C87.2678 13.784 87.5398 13.864 87.7318 14.024C87.9558 14.152 88.1478 14.376 88.3078 14.696L88.2598 16.616C88.2598 18.664 88.3558 20.6 88.5478 22.424C88.7718 24.248 89.1078 26.696 89.5558 29.768C89.8118 31.112 89.9878 32.216 90.0838 33.08C90.1478 33.528 90.0678 33.976 89.8438 34.424C89.6198 34.84 89.3318 35.048 88.9798 35.048ZM87.7798 8.648C87.0758 8.648 86.5478 8.376 86.1958 7.832C85.8758 7.288 85.7158 6.616 85.7158 5.816C85.7158 5.464 85.7318 5.20801 85.7638 5.04801C85.7318 4.53601 86.0198 4.28 86.6278 4.28C87.0758 4.28 87.5238 4.392 87.9718 4.616C88.4518 4.808 88.5958 4.95201 88.4038 5.04801C88.7238 5.88 88.8838 6.536 88.8838 7.016C88.8838 7.432 88.7878 7.768 88.5958 8.024C88.4038 8.248 88.1318 8.45601 87.7798 8.648Z" stroke="white" stroke-width="2" mask="url(#path-1-outside-1_1_6)"/>
<path d="M97.0288 34.664C96.3248 31.176 95.7808 27.048 95.3968 22.28C95.0448 17.48 94.8688 12.84 94.8688 8.36001C94.8688 6.12001 94.9168 4.13601 95.0128 2.408C95.0128 1.992 95.3328 1.784 95.9728 1.784C96.4848 1.784 96.8048 1.912 96.9328 2.168C97.0928 2.424 97.1728 2.824 97.1728 3.368C97.1728 8.552 97.2688 12.984 97.4608 16.664C97.6528 20.312 97.9088 24.248 98.2288 28.472C98.4208 31.192 98.5488 33.032 98.6128 33.992C98.6448 34.504 98.3728 34.76 97.7968 34.76C97.6048 34.76 97.3488 34.728 97.0288 34.664Z" stroke="white" stroke-width="2" mask="url(#path-1-outside-1_1_6)"/>
<path d="M134.083 35.048C127.971 35.048 123.235 34.712 119.875 34.04C119.011 18.008 118.227 8.312 117.523 4.952L116.083 5.288C115.315 5.448 114.579 5.624 113.875 5.816C113.171 5.976 112.419 6.216 111.619 6.536L111.571 4.90401C111.571 4.36 112.163 3.864 113.347 3.416C114.531 2.936 115.955 2.568 117.619 2.312C119.315 2.024 120.819 1.88 122.131 1.88C123.571 1.88 125.219 2.136 127.075 2.648C128.963 3.16 130.579 3.928 131.923 4.952C133.267 5.944 133.939 7.128 133.939 8.504C133.939 10.072 133.331 11.464 132.115 12.68C130.931 13.864 129.379 14.712 127.459 15.224C130.275 15.704 132.899 16.568 135.331 17.816C137.763 19.032 139.715 20.552 141.187 22.376C142.659 24.168 143.395 26.104 143.395 28.184C143.395 30.584 142.467 32.328 140.611 33.416C138.755 34.504 136.579 35.048 134.083 35.048ZM132.835 32.312C135.203 32.312 137.027 32.056 138.307 31.544C139.587 31 140.227 29.848 140.227 28.088C140.227 26.232 139.667 24.68 138.547 23.432C137.459 22.152 136.163 21.16 134.659 20.456C133.187 19.72 131.347 18.952 129.139 18.152C127.379 17.544 126.067 17.016 125.203 16.568C124.371 16.088 123.955 15.56 123.955 14.984C123.955 14.568 124.163 14.248 124.579 14.024C124.995 13.8 125.731 13.48 126.787 13.064C128.227 12.584 129.347 12.072 130.147 11.528C130.979 10.952 131.395 10.152 131.395 9.128C131.395 7.624 130.483 6.47201 128.659 5.67201C126.835 4.84001 124.787 4.42401 122.515 4.42401C121.875 4.42401 121.107 4.488 120.211 4.616C121.043 9.992 121.619 14.52 121.939 18.2C122.259 21.848 122.483 26.088 122.611 30.92C123.059 31.368 124.195 31.704 126.019 31.928C127.843 32.152 130.115 32.28 132.835 32.312Z" stroke="white" stroke-width="2" mask="url(#path-1-outside-1_1_6)"/>
<path d="M149.964 35.048C149.228 35.048 148.636 33.976 148.188 31.832C147.74 29.656 147.452 27.784 147.324 26.216C147.196 24.648 147.02 22.168 146.796 18.776C146.764 18.232 146.748 17.528 146.748 16.664C146.748 15.576 146.828 14.824 146.988 14.408C147.18 13.992 147.484 13.784 147.9 13.784C148.252 13.784 148.524 13.864 148.716 14.024C148.94 14.152 149.132 14.376 149.292 14.696L149.244 16.616C149.244 18.664 149.34 20.6 149.532 22.424C149.756 24.248 150.092 26.696 150.54 29.768C150.796 31.112 150.972 32.216 151.068 33.08C151.132 33.528 151.052 33.976 150.828 34.424C150.604 34.84 150.316 35.048 149.964 35.048ZM148.764 8.648C148.06 8.648 147.532 8.376 147.18 7.832C146.86 7.288 146.7 6.616 146.7 5.816C146.7 5.464 146.716 5.20801 146.748 5.04801C146.716 4.53601 147.004 4.28 147.612 4.28C148.06 4.28 148.508 4.392 148.956 4.616C149.436 4.808 149.58 4.95201 149.388 5.04801C149.708 5.88 149.868 6.536 149.868 7.016C149.868 7.432 149.772 7.768 149.58 8.024C149.388 8.248 149.116 8.45601 148.764 8.648Z" stroke="white" stroke-width="2" mask="url(#path-1-outside-1_1_6)"/>
<path d="M155.613 29.336C156.061 28.984 156.493 28.808 156.909 28.808C157.293 28.808 157.661 28.92 158.013 29.144C158.397 29.368 158.781 29.656 159.165 30.008C159.549 30.328 159.853 30.568 160.077 30.728C160.813 31.304 161.821 31.752 163.101 32.072C164.381 32.392 165.741 32.552 167.181 32.552C168.813 32.552 170.269 32.248 171.549 31.64C172.861 31 173.517 30.152 173.517 29.096C173.517 28.136 173.165 27.384 172.461 26.84C171.757 26.264 170.909 25.848 169.917 25.592C168.925 25.336 167.613 25.096 165.981 24.872C163.773 24.616 162.013 24.296 160.701 23.912C159.421 23.528 158.397 22.904 157.629 22.04C156.861 21.144 156.477 19.896 156.477 18.296C156.477 16.568 157.293 15.288 158.925 14.456C160.557 13.592 162.429 13.16 164.541 13.16C166.461 13.16 168.093 13.576 169.437 14.408C170.813 15.208 171.517 16.36 171.549 17.864C171.613 18.728 171.485 19.416 171.165 19.928C170.845 20.408 170.461 20.648 170.013 20.648C169.757 20.648 169.533 20.552 169.341 20.36C169.181 20.168 169.101 19.912 169.101 19.592C169.101 19.08 169.277 18.52 169.629 17.912C169.469 17.144 168.941 16.568 168.045 16.184C167.181 15.8 166.141 15.608 164.925 15.608C163.133 15.608 161.709 15.944 160.653 16.616C159.597 17.256 159.069 18.024 159.069 18.92C159.069 19.88 159.453 20.616 160.221 21.128C160.989 21.64 161.917 22.008 163.005 22.232C164.125 22.424 165.709 22.616 167.757 22.808C169.453 23.032 170.829 23.304 171.885 23.624C172.973 23.944 173.885 24.568 174.621 25.496C175.357 26.392 175.725 27.688 175.725 29.384C175.725 31.144 174.909 32.536 173.277 33.56C171.645 34.552 169.693 35.048 167.421 35.048C164.509 35.048 161.901 34.552 159.597 33.56C157.325 32.568 155.997 31.16 155.613 29.336Z" stroke="white" stroke-width="2" mask="url(#path-1-outside-1_1_6)"/>
<path d="M185.075 34.904C184.915 34.936 184.739 34.328 184.547 33.08C184.387 31.832 184.163 29.688 183.875 26.648C183.427 21.656 182.915 17.08 182.339 12.92C181.795 8.76 181.107 5.16 180.275 2.12C180.211 1.864 180.307 1.64 180.563 1.448C180.819 1.256 181.171 1.16 181.619 1.16C181.843 1.16 182.019 1.176 182.147 1.208C182.947 3.384 183.507 5.304 183.827 6.968C184.179 8.63201 184.499 10.68 184.787 13.112L185.027 14.984C186.947 13.832 188.707 13.256 190.307 13.256C193.219 13.256 195.283 14.584 196.499 17.24C197.747 19.864 198.371 23.608 198.371 28.472C198.371 30.328 198.259 31.896 198.035 33.176C197.811 34.424 197.539 35.048 197.219 35.048C196.803 35.048 196.339 34.744 195.827 34.136V32.552L195.875 27.32C195.875 26.328 195.843 25.096 195.779 23.624C195.683 21.128 195.171 19.24 194.243 17.96C193.347 16.68 191.795 16.04 189.587 16.04C188.115 16.04 186.739 16.584 185.459 17.672C185.459 18.888 185.507 20.136 185.603 21.416C185.731 22.696 185.875 23.944 186.035 25.16C186.259 26.856 186.419 28.36 186.515 29.672C186.643 30.952 186.707 32.376 186.707 33.944C186.515 34.328 186.291 34.584 186.035 34.712C185.811 34.84 185.491 34.904 185.075 34.904Z" stroke="white" stroke-width="2" mask="url(#path-1-outside-1_1_6)"/>
<path d="M210.304 35C209.984 35.064 209.776 35.096 209.68 35.096C208.688 35.096 208 34.36 207.616 32.888C207.264 31.416 207.088 29.352 207.088 26.696C207.088 25.608 207.12 23.912 207.184 21.608C207.248 20.2 207.28 19.144 207.28 18.44C203.344 18.44 201.376 17.992 201.376 17.096C201.376 16.808 201.408 16.584 201.472 16.424C201.568 16.264 201.76 16.184 202.048 16.184L207.28 15.848C207.248 14.28 207.168 12.568 207.04 10.712C206.912 9.048 206.832 7.512 206.8 6.104C206.8 5.752 206.944 5.512 207.232 5.384C207.52 5.224 207.824 5.144 208.144 5.144C208.528 5.144 208.848 5.352 209.104 5.768C209.36 6.152 209.488 6.55201 209.488 6.968L209.824 15.752L213.808 15.944C214.416 15.88 214.928 15.992 215.344 16.28C215.792 16.568 216.032 17.048 216.064 17.72C215.392 18.008 214.656 18.184 213.856 18.248C213.056 18.312 211.712 18.344 209.824 18.344C209.824 21.32 209.968 26.216 210.256 33.032C210.256 33.736 210.256 34.232 210.256 34.52C210.288 34.776 210.304 34.936 210.304 35Z" stroke="white" stroke-width="2" mask="url(#path-1-outside-1_1_6)"/>
</svg>


